#define icon_width 16
#define icon_height 16
static unsigned char icon_bits[] = {
   0x00, 0x00, 0xf0, 0x7f, 0x78, 0x7f, 0xec, 0x3d, 0xfc, 0x1f, 0xfe, 0x0f,
   0x7f, 0x07, 0xfb, 0x03, 0x7f, 0x1f, 0xc0, 0x0f, 0xe0, 0x07, 0xb0, 0x03,
   0xf8, 0x00, 0x3c, 0x00, 0x1c, 0x00, 0x06, 0x00 };
